<?xml version="1.0" encoding="UTF-8" standalone="no"?> <svg class="svg-icon" style="width: 1em; height: 1em;vertical-align: middle;fill: currentColor;overflow: hidden;" viewBox="0 0 1024 1024" version="1.1" xmlns="http://www.w3.org/2000/svg"><path d="M529.066667 68.266667a443.733333 443.733333 0 1 0 443.733333 443.733333A443.733333 443.733333 0 0 0 529.066667 68.266667z m0 568.490666A124.757333 124.757333 0 1 1 653.824 512 124.757333 124.757333 0 0 1 529.066667 636.757333z" fill="#FF9999" /><path d="M529.066667 972.8a460.8 460.8 0 1 1 460.8-460.8 460.8 460.8 0 0 1-460.8 460.8z m0-887.466667a426.666667 426.666667 0 1 0 426.666666 426.666667A426.666667 426.666667 0 0 0 529.066667 85.333333z m0 568.490667A141.824 141.824 0 1 1 670.890667 512 141.994667 141.994667 0 0 1 529.066667 653.824z m0-249.514667A107.690667 107.690667 0 1 0 636.757333 512 107.861333 107.861333 0 0 0 529.066667 404.309333z" fill="#DA1C5C" /><path d="M390.485333 376.490667h-2.901333l-83.114667-13.824a17.066667 17.066667 0 0 1 5.632-34.133334l83.285334 13.824a17.066667 17.066667 0 0 1-2.730667 34.133334zM424.618667 273.066667h-2.901334a17.066667 17.066667 0 0 1-13.824-19.797334l14.677334-83.114666a17.066667 17.066667 0 1 1 34.133333 5.973333l-14.677333 83.114667a17.066667 17.066667 0 0 1-17.408 13.824zM580.266667 299.690667a17.066667 17.066667 0 0 1-17.066667-12.970667L543.914667 204.8a17.066667 17.066667 0 0 1 33.109333-8.192l20.309333 81.92a17.066667 17.066667 0 0 1-12.458666 20.650667zM672.426667 348.501333a17.066667 17.066667 0 0 1-8.362667-31.914666l73.728-40.96a17.066667 17.066667 0 0 1 17.066667 29.866666l-73.728 40.96a17.066667 17.066667 0 0 1-8.704 2.048zM819.2 433.834667h-3.584l-82.432-17.066667a17.066667 17.066667 0 1 1 7.168-34.133333l82.432 17.066666a17.066667 17.066667 0 0 1-3.584 34.133334zM168.618667 459.776A17.066667 17.066667 0 0 1 162.133333 426.666667l69.290667-27.648a17.066667 17.066667 0 0 1 12.629333 31.744l-69.290666 27.818666a17.066667 17.066667 0 0 1-6.144 1.194667zM937.642667 466.602667a78.336 78.336 0 0 0-43.349334-7.338667c-27.648 2.048-46.421333 25.6-46.421333 59.904v92.330667a68.266667 68.266667 0 0 1-64.341333 69.12 69.973333 69.973333 0 0 1-64.341334-70.656 242.176 242.176 0 0 0-3.584-38.058667c-6.314667-41.472-61.952-34.133333-62.293333-34.133333-11.776 63.829333-55.978667 98.986667-124.245333 98.986666-76.458667 0-124.074667-47.957333-124.074667-124.416a101.034667 101.034667 0 0 0 0-41.813333c-19.626667-45.226667-123.050667-48.810667-124.757333 48.469333v92.330667a68.266667 68.266667 0 0 1-64.341334 69.12 69.973333 69.973333 0 0 1-64.341333-70.656 132.096 132.096 0 0 0-3.584-38.058667 51.2 51.2 0 0 0-49.493333-34.133333 13.824 13.824 0 0 1-11.946667-7.168 443.733333 443.733333 0 0 0 887.466667-12.288c-1.194667-22.016-23.722667-44.202667-36.352-51.541333z" fill="#603913" /><path d="M529.066667 972.8A459.434667 459.434667 0 0 1 68.266667 530.773333a17.066667 17.066667 0 0 1 31.061333-10.581333 68.266667 68.266667 0 0 1 62.805333 44.202667 145.408 145.408 0 0 1 5.290667 45.909333 53.418667 53.418667 0 0 0 47.274667 53.248 51.2 51.2 0 0 0 47.274666-52.053333v-92.330667c0.853333-51.2 26.794667-85.333333 69.290667-94.378667a78.677333 78.677333 0 0 1 88.064 39.082667 97.109333 97.109333 0 0 1 2.901333 48.128c0 68.266667 39.765333 107.690667 106.837334 107.690667 60.074667 0 97.28-29.696 107.52-85.333334a17.066667 17.066667 0 0 1 15.530666-13.994666c34.133333-3.072 74.24 8.021333 80.554667 49.322666a256 256 0 0 1 3.754667 40.96 53.418667 53.418667 0 0 0 47.274666 53.248 51.2 51.2 0 0 0 47.274667-52.053333v-92.672c0-43.178667 25.088-74.069333 62.293333-76.8a94.037333 94.037333 0 0 1 53.077334 9.557333c17.066667 10.069333 44.544 37.034667 43.349333 66.56A462.336 462.336 0 0 1 529.066667 972.8zM104.618667 554.837333A426.666667 426.666667 0 0 0 955.733333 517.632c0-12.458667-15.530667-30.037333-26.453333-36.181333a61.44 61.44 0 0 0-34.133333-5.12c-18.944 1.365333-30.72 17.066667-30.72 42.837333v92.330667a85.333333 85.333333 0 0 1-81.408 86.186666 86.869333 86.869333 0 0 1-81.408-87.552 224.085333 224.085333 0 0 0-3.072-34.133333c-2.56-17.066667-19.626667-21.162667-31.914667-21.845333-17.066667 63.829333-66.56 100.010667-138.069333 100.010666-85.333333 0-141.141333-55.466667-141.141334-141.482666a46.08 46.08 0 0 1 0-4.949334 65.706667 65.706667 0 0 0 0-30.037333 46.421333 46.421333 0 0 0-50.176-19.285333c-25.941333 5.12-41.301333 27.477333-41.813333 61.269333v91.989333a85.333333 85.333333 0 0 1-81.408 86.186667 86.869333 86.869333 0 0 1-81.408-87.552 146.261333 146.261333 0 0 0-1.194667-31.744 35.157333 35.157333 0 0 0-26.794666-23.722667z" fill="#DA1C5C" /><path d="M536.064 901.290667a351.914667 351.914667 0 0 1-130.730667-26.112 17.066667 17.066667 0 0 1 11.946667-31.914667 313.344 313.344 0 0 0 119.466667 23.893333 276.309333 276.309333 0 0 0 117.248-25.941333 17.066667 17.066667 0 1 1 15.189333 30.549333 311.978667 311.978667 0 0 1-133.12 29.525334z" fill="#FF9999" /></svg>