<?xml version="1.0" encoding="iso-8859-1"?>
<!-- Generator: Adobe Illustrator 21.0.0, SVG Export Plug-In . SVG Version: 6.00 Build 0)  -->
<svg version="1.1" xmlns="http://www.w3.org/2000/svg" xmlns:xlink="http://www.w3.org/1999/xlink" x="0px" y="0px"
	 viewBox="0 0 32 32" style="enable-background:new 0 0 32 32;" xml:space="preserve">
<g id="Soft_drink">
	<g>
		<rect style="fill:none;" width="32" height="32"/>
		<g>
			<g>
				<path style="fill:#FFCC99;" d="M21,10h-2c-0.553,0-1-0.447-1-1V1c0-0.553,0.447-1,1-1h2c0.553,0,1,0.447,1,1v8
					C22,9.553,21.553,10,21,10z"/>
			</g>
		</g>
	</g>
	<g>
		<path style="fill:#F26C9A;" d="M5.664,10l1.002,9.109C6.722,19.616,7.15,20,7.66,20h16.68c0.51,0,0.938-0.384,0.994-0.891
			L26.336,10H5.664z"/>
		<path style="fill:#D95782;" d="M16,20h8.34c0.51,0,0.938-0.384,0.994-0.891L26.336,10H16V20z"/>
		<path style="fill:#D7EBFF;" d="M26,12H6c-1.105,0-2-0.895-2-2v0c0-1.105,0.895-2,2-2h20c1.105,0,2,0.895,2,2v0
			C28,11.105,27.105,12,26,12z"/>
		<g>
			<path style="fill:#F26C9A;" d="M23,32H9c-0.51,0-0.938-0.384-0.994-0.891l-0.66-6c-0.031-0.282,0.06-0.565,0.249-0.776
				C7.785,24.121,8.056,24,8.34,24h15.32c0.284,0,0.555,0.121,0.745,0.333c0.189,0.211,0.28,0.494,0.249,0.776l-0.66,6
				C23.938,31.616,23.51,32,23,32z"/>
		</g>
		<path style="fill:#D95782;" d="M23.994,31.109l0.66-6c0.031-0.282-0.06-0.565-0.249-0.776C24.215,24.121,23.944,24,23.66,24H16v8
			h7C23.51,32,23.938,31.616,23.994,31.109z"/>
		<g>
			<path style="fill:#D7EBFF;" d="M24.553,26H7.447l-0.906-8h18.918L24.553,26z"/>
		</g>
		<polygon style="fill:#BDDEFF;" points="16,26 24.553,26 25.459,18 16,18 		"/>
	</g>
	<path style="fill:#BDDEFF;" d="M26,8H16v4h10c1.105,0,2-0.895,2-2S27.105,8,26,8z"/>
</g>
<g id="Layer_1">
</g>
</svg>
